<?xml version="1.0" encoding="utf-8"?>
<!-- Generator: Adobe Illustrator 18.0.0, SVG Export Plug-In . SVG Version: 6.00 Build 0)  -->
<!DOCTYPE svg PUBLIC "-//W3C//DTD SVG 1.1//EN" "http://www.w3.org/Graphics/SVG/1.1/DTD/svg11.dtd">
<svg version="1.1" xmlns="http://www.w3.org/2000/svg" xmlns:xlink="http://www.w3.org/1999/xlink" x="0px" y="0px"
	 viewBox="0 0 749 265.5" enable-background="new 0 0 749 265.5" xml:space="preserve">
<g id="レイヤー_3" display="none">
	<rect x="-137" y="-237" display="inline" width="1024" height="768"/>
</g>
<g id="レイヤー_2">
	<g>
		<path fill="#231F20" d="M77,145.5H11c-2.5,0-4.5,2-4.5,4.5s2,4.5,4.5,4.5h28.5V234c0,2.5,2,4.5,4.5,4.5s4.5-2,4.5-4.5v-79.5H77
			c2.5,0,4.5-2,4.5-4.5S79.5,145.5,77,145.5z"/>
		<path fill="#231F20" d="M122,173.5c-17.9,0-32.5,14.6-32.5,32.5s14.6,32.5,32.5,32.5c9.2,0,17.6-3.9,23.5-10.1v5.6
			c0,2.5,2,4.5,4.5,4.5s4.5-2,4.5-4.5v-28C154.5,188.1,139.9,173.5,122,173.5z M122,229.5c-13,0-23.5-10.5-23.5-23.5
			s10.5-23.5,23.5-23.5s23.5,10.5,23.5,23.5S135,229.5,122,229.5z"/>
		<path fill="#231F20" d="M595.5,174c-17.9,0-32.5,14.6-32.5,32.5s14.6,32.5,32.5,32.5c9.2,0,17.6-3.9,23.5-10.1v5.6
			c0,2.5,2,4.5,4.5,4.5s4.5-2,4.5-4.5v-28C628,188.6,613.4,174,595.5,174z M595.5,230c-13,0-23.5-10.5-23.5-23.5
			s10.5-23.5,23.5-23.5s23.5,10.5,23.5,23.5S608.5,230,595.5,230z"/>
		<path fill="#231F20" d="M256.2,229c-2.5,0.2-8.6-0.3-11.1-2.7c-0.8-0.7-1.1-1.6-1.1-2.8V182h7.5c2.5,0,4.5-2,4.5-4.5
			s-2-4.5-4.5-4.5H244v-23.5c0-2.5-2-4.5-4.5-4.5s-4.5,2-4.5,4.5V173h-7.5c-2.5,0-4.5,2-4.5,4.5s2,4.5,4.5,4.5h7.5v41.5
			c0,3.7,1.4,6.9,4,9.4c4.9,4.6,13,5.2,16.3,5.2c0.7,0,1.2,0,1.5,0c2.5-0.1,4.4-2.3,4.2-4.8C260.8,230.8,258.7,228.9,256.2,229z"/>
		<g>
			<path fill="#231F20" d="M281.5,163c1.2,0,2.3-0.5,3.2-1.3c0.8-0.8,1.3-2,1.3-3.2c0-1.2-0.5-2.3-1.3-3.2c-0.8-0.8-2-1.3-3.2-1.3
				c-1.2,0-2.3,0.5-3.2,1.3c-0.2,0.2-0.4,0.4-0.6,0.7c-0.2,0.2-0.3,0.5-0.4,0.8c-0.1,0.3-0.2,0.5-0.3,0.8s-0.1,0.6-0.1,0.9
				c0,1.2,0.5,2.3,1.3,3.2C279.2,162.5,280.3,163,281.5,163z"/>
			<path fill="#231F20" d="M281.5,173c-2.5,0-4.5,2-4.5,4.5v57c0,2.5,2,4.5,4.5,4.5s4.5-2,4.5-4.5v-57C286,175,284,173,281.5,173z"
				/>
		</g>
		<path fill="#231F20" d="M355.5,239c-2.5,0-4.5-2-4.5-4.5v-36c0-10.3-10.4-16.5-20.5-16.5c-10.2,0-21.5,7-21.5,17v35.5
			c0,2.5-2,4.5-4.5,4.5s-4.5-2-4.5-4.5v-57c0-2.5,2-4.5,4.5-4.5s4.5,2,4.5,4.5v3.3c5.9-4.9,13.8-7.8,21.5-7.8
			c16.5,0,29.5,11.2,29.5,25.5v36C360,237,358,239,355.5,239z"/>
		<path fill="#231F20" d="M641.5,239c-2.5,0-4.5-2-4.5-4.5v-57c0-2.5,2-4.5,4.5-4.5s4.5,2,4.5,4.5v3.3c5.9-4.9,13.8-7.8,21.5-7.8
			c5.1,0,9.9,1,14.2,3c2.3,1,3.2,3.7,2.2,6c-1,2.3-3.7,3.2-6,2.2c-3.1-1.4-6.6-2.2-10.4-2.2c-10.2,0-21.5,7-21.5,17v35.5
			C646,237,644,239,641.5,239z"/>
		<path fill="#231F20" d="M402.5,174c-17.9,0-32.5,14.6-32.5,32.5s14.6,32.5,32.5,32.5c9.2,0,17.6-3.9,23.5-10.1v4.6
			c0,11.9-1.8,22.5-23.5,22.5c-17.3,0-21.6-10.6-21.8-11c-0.8-2.3-3.4-3.6-5.8-2.7c-2.3,0.8-3.6,3.4-2.7,5.8c0.2,0.7,6.3,17,30.2,17
			c32.5,0,32.5-22.9,32.5-31.5v-27C435,188.6,420.4,174,402.5,174z M402.5,230c-13,0-23.5-10.5-23.5-23.5s10.5-23.5,23.5-23.5
			s23.5,10.5,23.5,23.5S415.5,230,402.5,230z"/>
		<path fill="#231F20" d="M525,239c-25.9,0-47-21.1-47-47s21.1-47,47-47c10.1,0,19.8,3.2,27.9,9.2c2,1.5,2.4,4.3,0.9,6.3
			c-1.5,2-4.3,2.4-6.3,0.9c-6.6-4.8-14.4-7.4-22.5-7.4c-21,0-38,17-38,38s17,38,38,38c7.6,0,15-2.2,21.2-6.5
			c2.1-1.4,4.9-0.9,6.2,1.2c1.4,2.1,0.9,4.9-1.2,6.2C543.5,236.2,534.4,239,525,239z"/>
		<path fill="#231F20" d="M189.5,238c-17.3,0-24.6-11.7-24.9-12.2c-1.3-2.1-0.6-4.9,1.5-6.2c2.1-1.3,4.9-0.6,6.2,1.5
			c0.2,0.3,5.1,7.8,17.1,7.8c16.5,0,16.5-5.1,16.5-8.5c0-3.9-1.7-5-13-8.3c-1.5-0.4-3.1-0.9-4.9-1.4c-16.3-5-24.2-11.3-24.2-19.3
			c0-7.4,6.8-18.5,25.5-18.5c17.2,0,24.4,10.6,24.7,11c1.4,2.1,0.8,4.9-1.2,6.2c-2.1,1.4-4.8,0.8-6.2-1.2c-0.3-0.4-5.2-7-17.3-7
			c-6.4,0-16.5,2.6-16.5,9.5c0,2.4,4.7,6.7,17.8,10.7c1.7,0.5,3.2,1,4.7,1.4c10.4,3.1,19.4,5.7,19.4,16.9
			C215,238,196.5,238,189.5,238z"/>
		<path fill="#231F20" d="M718.5,238c-17.3,0-24.6-11.7-24.9-12.2c-1.3-2.1-0.6-4.9,1.5-6.2c2.1-1.3,4.9-0.6,6.2,1.5
			c0.2,0.3,5.1,7.8,17.1,7.8c16.5,0,16.5-5.1,16.5-8.5c0-3.9-1.7-5-13-8.3c-1.5-0.4-3.1-0.9-4.9-1.4c-16.3-5-24.2-11.3-24.2-19.3
			c0-7.4,6.8-18.5,25.5-18.5c17.2,0,24.4,10.6,24.7,11c1.4,2.1,0.8,4.9-1.2,6.2c-2.1,1.4-4.8,0.8-6.2-1.2c-0.3-0.4-5.2-7-17.3-7
			c-6.4,0-16.5,2.6-16.5,9.5c0,2.4,4.7,6.7,17.8,10.7c1.7,0.5,3.2,1,4.7,1.4c10.4,3.1,19.4,5.7,19.4,16.9
			C744,238,725.5,238,718.5,238z"/>
	</g>
	<g>
		<path fill="#231F20" d="M79.5,84C78.7,63.7,66.9,52.5,46,52.5S13.3,63.7,12.5,84H7v28h7v13h15v-13h17h17v13h15v-13h7V84H79.5z
			 M31,104H13V92h18V104z M21.6,84C22.2,68.7,30,61.5,46,61.5S69.8,68.7,70.4,84H46H21.6z M79,104H61V92h18V104z"/>
		<path fill="#231F20" d="M175.5,84c-0.7-20.3-12.5-31.5-33.5-31.5S109.3,63.7,108.5,84H103v28h7v13h15v-13h17h17v13h15v-13h7V84
			H175.5z M127,104h-18V92h18V104z M117.6,84c0.6-15.3,8.4-22.5,24.4-22.5s23.8,7.2,24.4,22.5H142H117.6z M175,104h-18V92h18V104z"
			/>
		<path fill="#231F20" d="M128.2,34.5c-0.7-14.1-7.4-29.8-33.9-30v0c-0.1,0-0.2,0-0.2,0c-0.1,0-0.2,0-0.2,0v0
			c-26.5,0.2-33.3,15.8-33.9,30c-3.1,0-5.1,0-5.1,0s0,4.5,0,7.5s6.5,4,6.5,0c0-1,0-2,8-2s11,1,11,6c0,4.9,0,16.7,13.5,17v0
			c0.1,0,0.2,0,0.2,0c0.1,0,0.2,0,0.2,0v0c13.5-0.3,13.5-12,13.5-17c0-5,3-6,11-6s8,1,8,2c0,4,6.5,3,6.5,0s0-7.5,0-7.5
			S131.3,34.5,128.2,34.5z M94.2,34.5c-0.2,0-0.3,0-0.5,0c-7.8,0-17.3,0-24.9,0c0.8-14.2,8.9-20.9,25.2-21
			c16.3,0.1,24.3,6.8,25.2,21C111.5,34.5,102,34.5,94.2,34.5z"/>
	</g>
</g>
</svg>
